<?xml version="1.0" standalone="no"?><!DOCTYPE svg PUBLIC "-//W3C//DTD SVG 1.1//EN" "http://www.w3.org/Graphics/SVG/1.1/DTD/svg11.dtd"><svg t="1510822270781" class="icon" style="" viewBox="0 0 1024 1024" version="1.1" xmlns="http://www.w3.org/2000/svg" p-id="9348" xmlns:xlink="http://www.w3.org/1999/xlink" width="20" height="20"><defs><style type="text/css"> path { fill: #5CB85C; }</style></defs><path d="M513.720178 62.432934c-247.53163 0-448.195835 200.664206-448.195835 448.195835 0 247.532653 200.664206 448.195835 448.195835 448.195835 247.532653 0 448.195835-200.662159 448.195835-448.195835C961.916013 263.098163 761.251807 62.432934 513.720178 62.432934L513.720178 62.432934zM770.794138 394.371976 480.923214 684.245969c0 0-0.00307 0.00307-0.00921 0.00921-13.363356 13.367449-33.740452 15.45397-49.295729 6.265704-2.880607-1.702782-5.597485-3.793396-8.070816-6.265704-0.002047-0.00307-0.005117-0.005117-0.005117-0.005117L256.647241 517.354961c-15.84078-15.84078-15.84078-41.527812 0-57.372685 15.84078-15.84078 41.527812-15.84078 57.368592 0l138.215922 138.215922 261.193791-261.193791c15.842827-15.84078 41.529859-15.84078 57.370639 0C786.634918 352.84621 786.634918 378.531196 770.794138 394.371976L770.794138 394.371976z" fill="#808080" p-id="9349"></path></svg>
